# xmcd
#
# Track frame offsets:
#	150
#	67095
#	113412
#	155182
#
# Disc length: 2420 seconds
#
# Revision: 1
# Processed by: cddbd v1.5.2PL0 Copyright (c) Steve Scherf et al.
# Submitted via: audiograbber 1.83.01
#
DISCID=31097204
DTITLE=Grateful Dead - 80-11-29 Alligator Alley Gymnasium, Gainesville FL
DYEAR=1900
DGENRE=
TTITLE0=Space > The Other One
TTITLE1=Stella Blue
TTITLE2=Good Lovin
TTITLE3=Casey Jones
EXTD=
EXTT0=
EXTT1=
EXTT2=
EXTT3=
PLAYORDER=
